<svg width="715" height="715" viewBox="0 0 715 715" fill="none" xmlns="http://www.w3.org/2000/svg">
<path d="M263.629 388.08C284.289 389.524 302.208 373.947 303.653 353.287V353.287C304.82 336.593 319.151 323.914 335.862 324.789V324.789C356.544 325.873 374.189 309.985 375.273 289.303C376.357 268.621 360.47 250.976 339.788 249.893V249.893C323.964 249.064 311.895 235.42 313 219.613V219.613C314.445 198.953 298.868 181.033 278.208 179.589C257.548 178.144 239.628 193.721 238.183 214.382V214.382C237.016 231.076 222.684 243.755 205.971 242.879V242.879C185.289 241.795 167.644 257.683 166.56 278.365C165.476 299.047 181.364 316.693 202.046 317.777V317.777C217.869 318.606 229.941 332.248 228.836 348.055V348.055C227.391 368.715 242.969 386.635 263.629 388.08Z" fill="white"/>
<path d="M50.7656 335.603C62.5929 166.465 209.294 38.9393 378.433 50.7665C547.571 62.5938 675.097 209.295 663.27 378.433C651.442 547.572 504.741 675.098 335.603 663.27C166.464 651.443 38.9384 504.742 50.7656 335.603Z" stroke="white" stroke-width="55"/>
<path d="M216.067 534.348C246.772 555.848 281.987 570.039 319.019 575.837C356.051 581.635 393.918 578.886 429.725 567.8C465.531 556.714 498.327 537.585 525.604 511.876C552.881 486.168 573.917 454.56 587.101 419.472L529.52 397.836C519.635 424.142 503.864 447.838 483.414 467.113C462.964 486.387 438.376 500.728 411.532 509.04C384.687 517.351 356.297 519.412 328.534 515.065C300.77 510.718 274.369 500.078 251.35 483.96L216.067 534.348Z" fill="white"/>
</svg>
